<svg data-v-0dd9719b="" version="1.0" xmlns="http://www.w3.org/2000/svg" xmlns:xlink="http://www.w3.org/1999/xlink" width="100%" height="100%" viewBox="0 0 340.000000 250.000000" preserveAspectRatio="xMidYMid meet" color-interpolation-filters="sRGB" style="margin: auto;"> <rect data-v-0dd9719b="" x="0" y="0" width="100%" height="100%" fill="#fff" fill-opacity="1" class="background"></rect> <rect data-v-0dd9719b="" x="0" y="0" width="100%" height="100%" fill="url(#watermark)" fill-opacity="1" class="watermarklayer"></rect> <g data-v-0dd9719b="" fill="#333" class="icon-text-wrapper icon-svg-group iconsvg" transform="translate(82.38499450683594,66.59286880493164)"><g class="iconsvg-imagesvg" transform="translate(57.61500549316406,0)"><g><rect fill="#333" fill-opacity="0" stroke-width="2" x="0" y="0" width="60" height="53.371761001254235" class="image-rect"></rect> <svg x="0" y="0" width="60" height="53.371761001254235" filtersec="colorsb7300000042" class="image-svg-svg primary" style="overflow: visible;"><svg xmlns="http://www.w3.org/2000/svg" viewBox="0.0516120009124279 -0.0096036521717906 115.34138488769531 102.59999084472656"><title>资源 2</title><path d="M72 71.05a28.58 28.58 0 1 1-.64-40.15l16.15-16a51.3 51.3 0 1 0 .32 72.46z" fill="#2b6372"></path><path fill="#51adce" d="M99.18 35.335l16.213 16.214L99.18 67.763 82.966 51.55z"></path></svg></svg> <!----></g></g> <g transform="translate(0,60.371761322021484)"><g data-gra="path-name" fill-rule="" class="tp-name iconsvg-namesvg" transform="translate(0,0)"><g transform="scale(1)"><g><path d="M41.09-10.44L41.09-10.44 26.91-10.44 33.12-5.31 38.88-10.17 40.77-7.88 35.46-3.42 41.45 1.53 39.55 3.78 22.27-10.44 14.45-10.44 14.45 0.45 26.37-0.67 26.64 2.21 13.14 3.55 13 3.55Q12.42 3.55 11.97 3.15L11.97 3.15Q11.52 2.7 11.52 2.07L11.52 2.07 11.52-10.44 7.38-10.44 7.38-4.18Q7.38-3.87 7.33-3.78L7.33-3.78 5.17 3.55 2.34 2.7 4.41-4.37 4.41-26.01Q4.41-26.41 4.59-26.77L4.59-26.77 3.42-26.77 3.42-32.31Q3.42-32.94 3.85-33.37 4.27-33.8 4.91-33.8L4.91-33.8 21.2-33.8 20.61-35.82 23.45-36.67 24.3-33.8 40.55-33.8Q41.17-33.8 41.6-33.37 42.03-32.94 42.03-32.31L42.03-32.31 42.03-26.77 41.27-26.77 41.27-24.52 7.38-24.52 7.38-13.41 41.09-13.41 41.09-10.44ZM39.06-27.49L39.06-30.82 6.39-30.82 6.39-27.49 39.06-27.49ZM40.14-20.65L40.14-17.73 9.81-17.73 9.81-20.65 40.14-20.65ZM63.05-11.34L63.05-11.34 57.69-11.34 57.69-2.43 62.55-4.14 63.54-1.35 47.84 4.18 46.84 1.4 49.09 0.58 49.09-16.38 52.06-16.38 52.06-0.45 54.72-1.4 54.72-18.5 49.37-18.5Q48.73-18.5 48.31-18.92 47.88-19.35 47.88-19.98L47.88-19.98 47.88-34.2Q47.88-34.83 48.31-35.23 48.73-35.64 49.37-35.64L49.37-35.64 61.11-35.64Q61.74-35.64 62.17-35.23 62.59-34.83 62.59-34.2L62.59-34.2 62.59-19.98Q62.59-19.35 62.17-18.92 61.74-18.5 61.11-18.5L61.11-18.5 57.69-18.5 57.69-14.26 63.05-14.26 63.05-11.34ZM88.74 2.83L86.17 4.27 75.96-13.99 65.79 4.27 63.22 2.83 74.52-17.37 74.52-19.8 64.31-19.8 64.31-22.72 74.52-22.72 74.52-32.53 65.03-31.9 64.84-34.83 86.94-36.31 87.12-33.34 77.44-32.71 77.44-22.72 87.66-22.72 87.66-19.8 77.44-19.8 77.44-17.37 88.74 2.83ZM50.85-32.71L50.85-21.46 59.63-21.46 59.63-32.71 50.85-32.71ZM96.08 3.82L96.08 3.82 93.11 3.82 93.11-34.38Q93.11-35.01 93.53-35.44 93.96-35.87 94.59-35.87L94.59-35.87 130.32-35.87Q130.95-35.87 131.38-35.44 131.81-35.01 131.81-34.38L131.81-34.38 131.81 2.29Q131.81 2.92 131.38 3.35 130.95 3.78 130.32 3.78L130.32 3.78 117.72 3.78 117.72 0.81 128.84 0.81 128.84-32.89 96.08-32.89 96.08 3.82ZM127.8-1.44L125.1-0.27 119.83-12.6 114.57-0.27 112.32-1.21 110.03-0.27 104.76-12.55 99.54-0.27 96.84-1.44 103.19-16.34 96.84-31.23 99.54-32.4 104.76-20.11 110.03-32.4 112.32-31.41 114.57-32.4 119.83-20.07 125.1-32.4 127.8-31.23 121.41-16.34 127.8-1.44ZM106.38-16.34L112.32-2.48 118.22-16.34 112.32-30.15 106.38-16.34ZM176.18-14.58L176.18-14.58 175.41-14.98Q175.77-14.58 175.77-13.99L175.77-13.99 175.77 2.38Q175.77 3.01 175.34 3.44 174.91 3.87 174.28 3.87L174.28 3.87 154.53 3.87Q153.9 3.87 153.47 3.44 153.04 3.01 153.04 2.38L153.04 2.38 153.04-13.99Q153.04-14.63 153.45-15.03L153.45-15.03Q153.5-15.07 153.59-15.12L153.59-15.12 152.24-14.54 151.02-17.23 161.78-22.18 152.24-27.22 153.59-29.83 165.15-23.71 173.38-27.49 173.38-30.51 154.35-30.51Q153.41-30.51 153-31.36L153-31.36Q152.64-32.17 153.22-32.94L153.22-32.94 156.65-37.03 158.9-35.14 157.5-33.44 174.87-33.44Q175.5-33.44 175.93-33.03 176.35-32.63 176.35-31.99L176.35-31.99 176.35-26.55Q176.35-25.56 175.5-25.2L175.5-25.2 168.48-21.96 177.57-17.19 176.18-14.58ZM139.09-5.58L139.09-5.58Q138.24-5.58 137.79-6.34L137.79-6.34Q137.38-7.2 137.93-7.96L137.93-7.96 146.61-19.66 138.91-19.13Q138.01-19.04 137.56-19.8L137.56-19.8Q137.07-20.56 137.56-21.38L137.56-21.38 146.93-36.85 149.44-35.32 141.57-22.27 149.58-22.86Q150.53-22.86 151.02-22.09L151.02-22.09Q151.43-21.24 150.88-20.47L150.88-20.47 142.2-8.82 151.25-9.54 151.47-6.57 139.19-5.58 139.09-5.58ZM154.31-15.48L174.47-15.48 165.1-20.43 154.31-15.48ZM156.01-12.51L156.01 0.9 172.8 0.9 172.8-12.51 156.01-12.51ZM151.97 0.49L138.1 4.46 137.29 1.62 151.16-2.29 151.97 0.49Z" transform="translate(-2.3399999141693115, 37.029998779296875)"></path></g> <!----> <!----> <!----> <!----> <!----> <!----> <!----></g></g> <g data-gra="path-slogan" fill-rule="" class="tp-slogan iconsvg-slogansvg" fill="#333" transform="translate(26.47000503540039,47.4900016784668)"><!----> <!----> <g transform="scale(1, 1)"><g transform="scale(1)"><path d="M8.06-6.05L8.06-6.05L6.94-6.05Q6.52-7.78 4.55-7.83L4.55-7.83Q1.83-7.69 1.73-4.36L1.73-4.36Q1.73-0.80 4.59-0.80L4.59-0.80Q6.56-0.84 7.03-3.19L7.03-3.19L8.16-3.19Q7.64 0.05 4.36 0.14L4.36 0.14Q0.61 0 0.52-4.31L0.52-4.31Q0.70-8.63 4.55-8.81L4.55-8.81Q7.59-8.72 8.06-6.05ZM10.69-5.06L15.19-5.06L15.19-8.58L16.36-8.58L16.36 0L15.19 0L15.19-3.98L10.69-3.98L10.69 0L9.52 0L9.52-8.58L10.69-8.58L10.69-5.06ZM19.45-1.03L24.61-1.03L24.61 0L18.28 0L18.28-8.58L24.52-8.58L24.52-7.59L19.45-7.59L19.45-4.92L24.14-4.92L24.14-3.89L19.45-3.89L19.45-1.03ZM27.52-8.58L31.83-1.64L31.83-8.58L32.95-8.58L32.95 0L31.64 0L27.28-6.94L27.23-6.94L27.23 0L26.11 0L26.11-8.58L27.52-8.58ZM41.67-8.58L38.44-3.47L38.44 0L37.27 0L37.27-3.47L34.03-8.58L35.39-8.58L37.83-4.45L40.31-8.58L41.67-8.58ZM48.38-3.19L48.38-8.58L49.55-8.58L49.55-3.05Q49.41 0.05 46.03 0.14L46.03 0.14Q42.89 0.05 42.75-2.86L42.75-2.86L42.75-8.58L43.92-8.58L43.92-3.19Q43.97-0.84 46.08-0.80L46.08-0.80Q48.38-0.84 48.38-3.19L48.38-3.19ZM52.64-1.03L57.80-1.03L57.80 0L51.47 0L51.47-8.58L57.70-8.58L57.70-7.59L52.64-7.59L52.64-4.92L57.33-4.92L57.33-3.89L52.64-3.89L52.64-1.03ZM64.03-8.58L68.34-1.64L68.34-8.58L69.47-8.58L69.47 0L68.16 0L63.80-6.94L63.75-6.94L63.75 0L62.63 0L62.63-8.58L64.03-8.58ZM72.56-1.03L77.72-1.03L77.72 0L71.39 0L71.39-8.58L77.63-8.58L77.63-7.59L72.56-7.59L72.56-4.92L77.25-4.92L77.25-3.89L72.56-3.89L72.56-1.03ZM81.42-7.59L78.52-7.59L78.52-8.58L85.45-8.58L85.45-7.59L82.55-7.59L82.55 0L81.42 0L81.42-7.59ZM91.27-7.13L91.22-7.13L89.25 0L88.03 0L85.78-8.58L87-8.58L88.64-1.59L88.69-1.59L90.61-8.58L91.88-8.58L93.80-1.59L93.84-1.59L95.44-8.58L96.70-8.58L94.45 0L93.23 0L91.27-7.13ZM104.58-4.27L104.58-4.27Q104.39-7.64 101.58-7.83L101.58-7.83Q98.72-7.69 98.58-4.27L98.58-4.27Q98.72-0.94 101.58-0.80L101.58-0.80Q104.39-0.98 104.58-4.27ZM105.75-4.27L105.75-4.27Q105.47 0 101.58 0.14L101.58 0.14Q97.64 0 97.36-4.27L97.36-4.27Q97.59-8.72 101.58-8.81L101.58-8.81Q105.47-8.67 105.75-4.27ZM111.23-3.70L108.42-3.70L108.42 0L107.25 0L107.25-8.58L111.23-8.58Q114.09-8.58 114.09-6.28L114.09-6.28Q114.09-4.88 112.88-4.22L112.88-4.22Q113.91-3.94 113.91-2.58L113.91-2.58L114-1.03Q113.95-0.38 114.42-0.19L114.42-0.19L114.42 0L112.97 0Q112.83-0.61 112.78-2.16L112.78-2.16Q112.83-3.70 111.23-3.70L111.23-3.70ZM111.33-7.64L108.42-7.64L108.42-4.69L111.14-4.69Q112.88-4.69 112.88-6.19L112.88-6.19Q112.88-7.64 111.33-7.64L111.33-7.64ZM118.27-4.31L116.91-3.05L116.91 0L115.73 0L115.73-8.58L116.91-8.58L116.91-4.41L121.08-8.58L122.72-8.58L119.11-5.11L122.81 0L121.27 0L118.27-4.31Z" transform="translate(-0.515625, 8.8125)"></path></g></g></g></g></g><defs v-gra="od"></defs></svg>